<svg width="103" height="33" viewBox="0 0 103 33" fill="none" xmlns="http://www.w3.org/2000/svg">
<path d="M55.3734 15.249C61.826 12.3222 62.7803 2.77148 53.6019 2.77148H42.9728L39.0447 10.4737H40.8932L36.1948 28.8819H48.5184C57.509 28.9588 61.5524 18.372 55.3734 15.249ZM48.5184 22.1811H45.4375L46.5928 18.022H49.5195C52.9855 18.715 50.8291 22.335 48.5184 22.1811ZM50.3669 13.3234H47.7483L48.5184 9.70337H51.4451C54.2731 10.3966 51.8305 13.4775 50.3669 13.3234Z" fill="#005FAF" stroke="#005FAF" stroke-width="1.73022"/>
<path d="M80.6054 12.6087L84.6406 5.48532L79.1804 2.63721L78.4682 3.5162C75.5227 1.95698 60.0986 4.10985 59.1328 19.325C59.7101 32.0887 74.0123 29.7927 75.4151 28.9829L79.3487 20.8513C75.4962 23.3889 67.6078 24.6071 67.2741 16.9844C67.966 10.6985 75.3875 8.35109 80.6054 12.6087ZM100.741 2.77193H88.3363L84.3932 10.2436H86.4189L77.0702 28.8824H86.1192L87.977 24.3867H93.5316L93.6701 28.8824H102L100.741 2.77193ZM90.4936 18.3338L93.5314 11.0826L93.6699 18.3338H90.4936Z" fill="#005FAF" stroke="#005FAF" stroke-width="1.73022"/>
<path d="M23.2739 27.6358L23.7558 27.496L23.2273 26.7656L23.2739 27.6358ZM15.3626 27.5114L15.2694 28.1643C15.5092 28.1409 15.8045 28.3476 15.9222 27.8845C15.9134 27.5236 15.6386 27.5037 15.3626 27.5114ZM19.2019 27.496C19.1619 27.3182 19.0135 27.1872 18.6422 27.3096L18.7666 27.9777C19.0716 27.9101 19.2284 27.7296 19.2019 27.496ZM10.5288 26.9492L10.3804 27.5428C10.6189 27.5527 10.8983 27.7462 11.0566 27.3944C11.0672 27.174 11.0763 26.9545 10.5288 26.9492ZM18.8754 28.4752L18.9843 29.1592C19.239 29.1656 19.4713 29.0126 19.4039 28.693C19.339 28.3856 19.0808 28.4342 18.8754 28.4752Z" fill="#005FAF"/>
<path d="M28.9833 3.12384C20.7528 -1.06904 10.9233 -0.952429 3.08132 2.94097C-0.962477 10.0597 -1.09123 20.0199 3.08132 28.8416C11.7208 33.2136 21.2762 32.9256 29.044 29.0245C32.6947 21.5347 33.2976 12.5222 28.9833 3.12384ZM15.0829 24.3804L14.595 24.3859C14.4742 23.0379 14.152 21.9049 13.4607 21.0378C10.2908 17.0627 3.81102 20.0555 5.47602 13.2998C6.34176 9.84613 16.2167 7.80922 15.0829 24.3804ZM5.48773 17.708C6.17988 19.1168 10.5163 19.3476 12.0216 20.4261C14.4095 22.1366 14.0667 24.3866 14.0667 24.3866H13.5036C12.3949 20.9883 9.28329 23.679 6.79098 22.7638C5.22624 22.2072 4.09018 19.7949 5.48773 17.708ZM13.3885 28.7862L13.6217 26.9366L14.0413 26.9677L13.8547 29.0037C13.6665 29.9006 12.3293 29.7807 12.1606 28.926L12.3781 26.8122L12.8755 26.8902L12.6579 28.6618C12.6855 29.2482 13.2736 29.2131 13.3885 28.7862ZM11.1555 29.2913L10.6771 29.1758C10.7332 28.7804 11.2021 27.9761 10.2754 27.9761L10.0174 29.0274L9.48957 28.9284L10.0503 26.4047C11.4209 26.554 11.5408 26.9354 11.568 27.3449C11.5139 27.6625 11.4293 27.8842 11.1557 27.9386C11.4759 28.2292 11.1594 28.8383 11.1555 29.2913ZM8.11719 26.4646C7.98535 26.6395 7.72143 27.2506 7.68322 27.7376C7.64258 28.2537 8.1384 28.1451 8.26185 28.0848C8.36146 28.0364 8.43544 27.6219 8.43544 27.6219L8.08826 27.5061L8.20399 27.1592L8.98536 27.4196L8.60925 28.7217L8.29101 28.6347L8.31994 28.4322C7.93035 28.6097 7.21722 28.4766 7.13352 28.0271C7.04982 27.666 7.30335 26.5713 7.71215 26.0598C8.10946 25.5624 9.07746 26.0485 9.10109 26.3491C9.1245 26.6486 9.00634 26.9856 9.00634 26.9856L8.64194 26.9169C8.64194 26.9169 8.66424 26.8087 8.69605 26.6382C8.72962 26.4575 8.25854 26.2766 8.11719 26.4646ZM15.2227 28.5839L15.1295 29.7032L14.741 29.6877L14.8808 27.0298C15.851 27.0498 16.4071 27.1841 16.3885 27.8692C16.3307 28.8052 15.5727 28.5947 15.2227 28.5839ZM16.1898 24.3864H15.5398C15.4822 22.0847 15.9248 17.8745 14.7154 14.7762C13.7991 12.4275 11.4801 11.3709 10.9662 9.47356C10.1526 6.47041 11.5373 3.22101 16.1898 2.97079C20.2232 3.38489 21.4624 6.49868 20.7745 9.3978C19.5916 12.2965 18.4085 11.88 16.9356 14.7674C15.7326 17.8626 16.1907 21.9177 16.1898 24.3864ZM23.3982 28.6462L22.9474 28.8016L22.8074 26.1282L23.3359 25.9884L24.6416 28.1954L24.284 28.4286L23.8487 27.8071L23.3514 27.9935L23.3982 28.6462ZM18.1395 24.3864H17.6196C18.048 18.475 25.4764 19.7593 26.1553 17.708C27.3293 19.7416 26.9073 21.4563 25.6813 22.3353C22.6349 24.5204 19.7137 20.7182 18.1395 24.3864ZM20.8959 27.3719L21.1291 28.5998C21.2742 28.8827 21.3727 28.8304 21.5954 28.8019C21.8535 28.615 21.7996 28.433 21.7508 28.1956L22.2016 28.1336C22.3191 29.0232 21.8962 29.1139 21.5799 29.1749C20.9017 29.2235 20.7687 29.0914 20.5852 28.2113C20.4783 27.458 20.2937 26.6625 20.9271 26.5172C21.9668 26.3584 21.9054 26.8263 21.9995 27.1543L21.5488 27.2323C21.4768 26.9505 21.3732 26.8387 21.1446 26.8595C20.9363 26.9551 20.8509 27.1099 20.8959 27.3719ZM19.9478 28.6462C19.9694 29.0333 19.838 29.2904 19.5902 29.3767L18.5332 29.5943L18.1136 27.0298C18.3305 26.9944 19.3939 26.6048 19.6523 27.3098C19.7797 27.7402 19.6477 27.8946 19.4968 28.0868C19.7828 28.1786 19.8793 28.4012 19.9478 28.6462ZM17.2335 15.7765C19.5883 9.14647 24.9764 10.3181 26.1714 13.3C27.8086 19.2836 22.5368 17.6427 19.16 20.0963C17.8837 21.2063 17.2121 22.4798 17.2022 24.4102H16.6235C16.5889 20.5219 16.5259 17.7685 17.2335 15.7765Z" fill="#005FAF"/>
</svg>
