<svg width="50" height="50" viewBox="0 0 50 50" fill="none" xmlns="http://www.w3.org/2000/svg">
<g id="gridicons:chat">
<path id="Vector" d="M6.25016 25C3.9585 25 2.0835 23.125 2.0835 20.8333V10.4167C2.0835 8.125 3.9585 6.25 6.25016 6.25H22.9168C25.2085 6.25 27.0835 8.125 27.0835 10.4167V20.8333C27.0835 23.125 25.2085 25 22.9168 25H18.7502V31.25L12.5002 25H6.25016ZM43.7502 37.5C46.0418 37.5 47.9168 35.625 47.9168 33.3333V22.9167C47.9168 20.625 46.0418 18.75 43.7502 18.75H31.2502V20.8333C31.2502 25.4167 27.5002 29.1667 22.9168 29.1667V33.3333C22.9168 35.625 24.7918 37.5 27.0835 37.5H31.2502V43.75L37.5002 37.5H43.7502Z" fill="#BF5DEF"/>
</g>
</svg>
