<svg width="46" height="40" viewBox="0 0 46 40" fill="none" xmlns="http://www.w3.org/2000/svg">
<g id="Icon Pencil">
<path id="Vector" d="M20.5354 5.00586H5.54247C4.40637 5.00586 3.3168 5.40381 2.51345 6.11215C1.7101 6.8205 1.25879 7.78123 1.25879 8.78299V35.2229C1.25879 36.2246 1.7101 37.1854 2.51345 37.8937C3.3168 38.6021 4.40637 39 5.54247 39H35.5282C36.6643 39 37.7539 38.6021 38.5573 37.8937C39.3606 37.1854 39.8119 36.2246 39.8119 35.2229V22.0029" stroke="black" stroke-width="2" stroke-linecap="round" stroke-linejoin="round"/>
<path id="Vector_2" d="M36.5977 2.1734C37.4498 1.42209 38.6055 1 39.8105 1C41.0155 1 42.1712 1.42209 43.0232 2.1734C43.8753 2.92472 44.354 3.94373 44.354 5.00625C44.354 6.06877 43.8753 7.08778 43.0232 7.83909L22.6758 25.7805L14.1084 27.669L16.2502 20.1148L36.5977 2.1734Z" stroke="black" stroke-width="2" stroke-linecap="round" stroke-linejoin="round"/>
</g>
</svg>
