<svg width="31" height="41" viewBox="0 0 31 41" fill="none" xmlns="http://www.w3.org/2000/svg">
<g id="SendFill" clip-path="url(#clip0_1084_659)">
<path id="Vector" d="M30.0705 1.75787C30.139 1.52503 30.1558 1.26996 30.1188 1.02427C30.0817 0.77859 29.9925 0.5531 29.8621 0.375758C29.7318 0.198417 29.566 0.077022 29.3854 0.0266241C29.2048 -0.0237737 29.0173 -0.000958491 28.8461 0.0922414L1.44424 15.0034H1.44236L0.590935 15.4647C0.429674 15.5522 0.28933 15.6986 0.185408 15.8878C0.0814856 16.077 0.0180285 16.3016 0.00204634 16.5368C-0.0139358 16.772 0.0181789 17.0086 0.0948431 17.2205C0.171507 17.4324 0.289737 17.6114 0.436473 17.7376L1.20878 18.4039L1.21067 18.409L10.6197 26.5526L16.606 39.3523L16.6098 39.3574L17.0995 40.4081C17.1926 40.6069 17.3242 40.7669 17.4799 40.8706C17.6356 40.9742 17.8092 41.0174 17.9818 40.9954C18.1543 40.9734 18.319 40.8871 18.4578 40.746C18.5966 40.6048 18.7041 40.4143 18.7685 40.1954L30.0705 1.75787ZM26.6178 6.60099L12.5014 25.8044L12.0965 24.9382C12.0223 24.7793 11.9232 24.6446 11.8064 24.5436L11.1697 23.9927L25.286 4.7893L27.505 3.58237L26.6196 6.60099H26.6178Z" fill="#929F94"/>
</g>
<defs>
<clipPath id="clip0_1084_659">
<rect width="30.1389" height="41" fill="white"/>
</clipPath>
</defs>
</svg>
