<svg width="50" height="52" viewBox="0 0 50 52" fill="none" xmlns="http://www.w3.org/2000/svg">
<g id="&#240;&#159;&#166;&#134; icon &#34;User Circle&#34;">
<path id="Vector" d="M25 0.345703C11.1895 0.345703 0 11.9054 0 26.1729C0 40.4403 11.1895 52 25 52C38.8105 52 50 40.4403 50 26.1729C50 11.9054 38.8105 0.345703 25 0.345703ZM25 10.3433C29.8992 10.3433 33.871 14.4465 33.871 19.5078C33.871 24.5691 29.8992 28.6723 25 28.6723C20.1008 28.6723 16.129 24.5691 16.129 19.5078C16.129 14.4465 20.1008 10.3433 25 10.3433ZM25 46.1681C23.4303 46.1681 21.9039 45.9731 20.442 45.6058C13.1792 43.781 12.6727 32.8379 20.1613 32.8379C20.4032 32.8379 20.6452 32.8796 20.877 32.9525C22.1875 33.3899 23.5585 33.6711 25 33.6711C26.4415 33.6711 27.8226 33.3899 29.123 32.9525C29.3548 32.8796 29.5968 32.8379 29.8387 32.8379C37.3273 32.8379 36.8208 43.781 29.558 45.6058C28.0961 45.9731 26.5697 46.1681 25 46.1681Z" fill="#BF5DEF"/>
</g>
</svg>
